<svg xmlns="http://www.w3.org/2000/svg" viewBox="0 0 100 100">
  <defs>
    <linearGradient id="grad1" x1="0%" y1="0%" x2="100%" y2="100%">
      <stop offset="0%" style="stop-color:#3b82f6;stop-opacity:1" />
      <stop offset="100%" style="stop-color:#8b5cf6;stop-opacity:1" />
    </linearGradient>
  </defs>
  
  <!-- Background circle -->
  <circle cx="50" cy="50" r="45" fill="url(#grad1)" stroke="#1e293b" stroke-width="2"/>
  
  <!-- Letter E -->
  <path d="M25 25 L25 75 L75 75 L75 65 L35 65 L35 55 L65 55 L65 45 L35 45 L35 35 L75 35 L75 25 Z" 
        fill="white" opacity="0.9"/>
  
  <!-- Letter M -->
  <path d="M30 25 L30 75 L40 75 L50 45 L60 75 L70 75 L70 25 L60 25 L50 55 L40 25 Z" 
        fill="white" opacity="0.9"/>
  
  <!-- Letter S -->
  <path d="M75 30 C75 25 70 25 70 30 C70 35 75 35 75 40 C75 45 70 45 70 50 C70 55 75 55 75 60 C75 65 70 65 70 70 L75 70 L75 75 L65 75 C65 70 70 70 70 65 C70 60 65 60 65 55 C65 50 70 50 70 45 C70 40 65 40 65 35 C65 30 70 30 70 25 L65 25 L65 20 L75 20 Z" 
        fill="white" opacity="0.9"/>
</svg> 